# Blender v2.75 (sub 0) OBJ File: 'geom.blend'
# www.blender.org
mtllib door.mtl
o door_Cube.005
v -0.500000 0.000000 -0.500000
v -0.500000 1.000000 -0.500000
v 0.500000 0.000000 -0.500000
v 0.500000 1.000000 -0.500000
v -0.500000 1.000000 -0.300000
v -0.500000 0.000000 -0.300000
v 0.500000 1.000000 -0.300000
v 0.500000 0.000000 -0.300000
v -0.350548 0.850548 -0.300000
v -0.350548 0.149452 -0.300000
v 0.350548 0.850548 -0.300000
v 0.350548 0.149452 -0.300000
v -0.350548 0.850548 -0.400000
v -0.350548 0.149452 -0.400000
v 0.350548 0.850548 -0.400000
v 0.350548 0.149452 -0.400000
vt 0.000000 0.000000
vn 0.000000 0.000000 1.000000
vn 0.000000 1.000000 0.000000
vn 1.000000 0.000000 0.000000
vn -1.000000 0.000000 0.000000
vn 0.000000 -1.000000 0.000000
usemtl None
s off
f 6/1/1 8/1/1 12/1/1 10/1/1
f 4/1/2 2/1/2 5/1/2 7/1/2
f 3/1/3 4/1/3 7/1/3 8/1/3
f 2/1/4 1/1/4 6/1/4 5/1/4
f 12/1/4 11/1/4 15/1/4 16/1/4
f 7/1/1 5/1/1 9/1/1 11/1/1
f 8/1/1 7/1/1 11/1/1 12/1/1
f 5/1/1 6/1/1 10/1/1 9/1/1
f 13/1/1 14/1/1 16/1/1 15/1/1
f 9/1/3 10/1/3 14/1/3 13/1/3
f 10/1/2 12/1/2 16/1/2 14/1/2
f 11/1/5 9/1/5 13/1/5 15/1/5
