# Blender v2.75 (sub 0) OBJ File: 'geom.blend'
# www.blender.org
mtllib light.mtl
o light_Cube.001
v 0.000262 1.807904 -0.336753
v -0.056431 1.807904 -0.393446
v -0.056431 1.888079 -0.393446
v 0.000262 1.888079 -0.336753
v -0.336753 1.807904 0.000262
v -0.393446 1.807904 -0.056431
v -0.393446 1.888079 -0.056431
v -0.336753 1.888079 0.000262
v -0.336753 1.807903 -0.000262
v -0.393446 1.807903 0.056431
v -0.393446 1.888079 0.056431
v -0.336753 1.888079 -0.000262
v 0.000262 1.807904 0.336753
v -0.056431 1.807904 0.393446
v -0.056431 1.888079 0.393446
v 0.000262 1.888079 0.336753
v -0.000262 1.807904 0.336753
v 0.056431 1.807904 0.393446
v 0.056431 1.888079 0.393446
v -0.000262 1.888079 0.336753
v 0.336753 1.807904 -0.000262
v 0.393446 1.807904 0.056431
v 0.393446 1.888079 0.056431
v 0.336753 1.888079 -0.000262
v 0.336753 1.807904 0.000262
v 0.393446 1.807904 -0.056431
v 0.393446 1.888079 -0.056431
v 0.336753 1.888079 0.000262
v -0.000262 1.807904 -0.336753
v 0.056431 1.807904 -0.393446
v 0.056431 1.888079 -0.393446
v -0.000262 1.888079 -0.336753
v 0.071889 2.120603 -0.071889
v 0.071889 3.042813 -0.071889
v 0.071889 2.120603 0.071889
v 0.071889 3.042813 0.071889
v -0.071889 2.120603 -0.071889
v -0.071889 3.042813 -0.071889
v -0.071889 2.120603 0.071889
v -0.071889 3.042813 0.071889
v 0.071889 1.965023 0.071889
v 0.071889 1.965023 -0.071889
v -0.071889 1.965023 0.071889
v -0.071889 1.965023 -0.071889
v 0.515934 1.870603 -0.054331
v 0.515934 1.870603 0.054331
v 0.515934 1.715023 0.054331
v 0.515934 1.715023 -0.054331
v 0.054331 1.870603 0.515934
v -0.054331 1.870603 0.515934
v -0.054331 1.715023 0.515934
v 0.054331 1.715023 0.515934
v -0.054331 1.870603 -0.515934
v 0.054331 1.870603 -0.515934
v 0.054331 1.715023 -0.515934
v -0.054331 1.715023 -0.515934
v -0.515934 1.870603 0.054331
v -0.515934 1.870603 -0.054331
v -0.515934 1.715023 -0.054331
v -0.515934 1.715023 0.054331
v 0.893815 2.120603 0.054331
v 0.893815 2.120603 -0.054331
v 0.893815 1.965023 0.054331
v 0.893815 1.965023 -0.054331
v -0.054331 2.120603 0.893815
v 0.054331 2.120603 0.893815
v -0.054331 1.965023 0.893815
v 0.054331 1.965023 0.893815
v 0.054331 2.120603 -0.893815
v -0.054331 2.120603 -0.893815
v 0.054331 1.965023 -0.893815
v -0.054331 1.965023 -0.893815
v -0.893815 2.120603 -0.054331
v -0.893815 2.120603 0.054331
v -0.893815 1.965023 -0.054331
v -0.893815 1.965023 0.054331
v -0.000000 2.392813 -0.844701
v -0.000000 1.992813 -0.844701
v -0.000000 1.992813 0.844701
v -0.000000 2.392813 0.844701
v -0.038712 1.992813 0.777650
v -0.038712 2.492813 0.777650
v 0.038712 1.992813 0.777650
v 0.038712 2.492813 0.777650
v -0.038712 1.992813 -0.777650
v -0.038712 2.492813 -0.777650
v 0.038712 1.992813 -0.777650
v 0.038712 2.492813 -0.777650
v 0.844701 2.392813 -0.000000
v 0.844701 1.992813 -0.000000
v -0.844701 1.992813 0.000000
v -0.844701 2.392813 0.000000
v -0.777650 1.992813 -0.038712
v -0.777650 2.492813 -0.038712
v -0.777650 1.992813 0.038712
v -0.777650 2.492813 0.038712
v 0.777649 1.992813 -0.038712
v 0.777649 2.492813 -0.038712
v 0.777649 1.992813 0.038712
v 0.777649 2.492813 0.038712
v -0.215544 1.872198 0.225811
v -0.215544 2.272198 0.225811
v -0.195506 1.872198 0.151025
v -0.195506 2.372198 0.151025
v -0.140758 1.872198 0.205773
v -0.140758 2.372198 0.205773
v -0.225811 1.872198 -0.215544
v -0.225811 2.272198 -0.215544
v -0.151025 1.872198 -0.195506
v -0.151025 2.372198 -0.195506
v -0.205773 1.872198 -0.140758
v -0.205773 2.372198 -0.140758
v 0.215544 1.872198 -0.225811
v 0.215544 2.272198 -0.225811
v 0.195506 1.872198 -0.151025
v 0.195506 2.372198 -0.151025
v 0.140758 1.872198 -0.205773
v 0.140758 2.372198 -0.205773
v 0.225811 1.872198 0.215544
v 0.225811 2.272198 0.215544
v 0.151025 1.872198 0.195505
v 0.151025 2.372198 0.195505
v 0.205773 1.872198 0.140758
v 0.205773 2.372198 0.140758
v 0.071889 0.420603 -0.071889
v 0.071889 0.420603 0.071889
v -0.071889 0.420603 -0.071889
v -0.071889 0.420603 0.071889
v 0.071889 0.265023 0.071889
v 0.071889 0.265023 -0.071889
v -0.071889 0.265023 0.071889
v -0.071889 0.265023 -0.071889
v 0.515934 0.170603 -0.054331
v 0.515934 0.170603 0.054331
v 0.515934 0.015023 0.054331
v 0.515934 0.015023 -0.054331
v 0.054331 0.170603 0.515934
v -0.054331 0.170603 0.515934
v -0.054331 0.015023 0.515934
v 0.054331 0.015023 0.515934
v -0.054331 0.170603 -0.515934
v 0.054331 0.170603 -0.515934
v 0.054331 0.015023 -0.515934
v -0.054331 0.015023 -0.515934
v -0.515934 0.170603 0.054331
v -0.515934 0.170603 -0.054331
v -0.515934 0.015023 -0.054331
v -0.515934 0.015023 0.054331
vn 0.000000 -1.000000 -0.000000
vn -0.707100 0.000000 -0.707100
vn 0.000000 1.000000 0.000000
vn 0.707100 0.000000 0.707100
vn -0.707100 0.000000 0.707100
vn 0.707100 0.000000 -0.707100
vn 1.000000 0.000000 0.000000
vn 0.000000 0.000000 1.000000
vn -1.000000 0.000000 0.000000
vn 0.000000 0.000000 -1.000000
vn 0.000000 0.834000 0.551800
vn 0.490600 0.871400 0.000000
vn 0.039500 0.000000 0.999200
vn -0.490600 -0.871400 0.000000
vn 0.039500 0.000000 -0.999200
vn 0.000000 0.871400 0.490600
vn -0.999200 0.000000 0.039500
vn 0.000000 -0.871400 -0.490600
vn 0.999200 0.000000 0.039500
vn 0.000000 0.834000 -0.551800
vn 0.000000 0.871400 -0.490600
vn 0.999200 0.000000 -0.039500
vn 0.000000 -0.871400 0.490600
vn -0.999200 0.000000 -0.039500
vn -0.551800 0.834000 0.000000
vn -0.490600 0.871400 0.000000
vn -0.039500 0.000000 -0.999200
vn 0.490600 -0.871400 0.000000
vn -0.039500 0.000000 0.999200
vn 0.551800 0.834000 0.000000
vn 0.551800 -0.834000 0.000000
vn 0.000000 -0.834000 0.551800
vn 0.000000 -0.834000 -0.551800
vn -0.551800 -0.834000 0.000000
vn -0.866000 0.000000 -0.500000
vn -0.866000 0.000000 0.500000
vn 0.000000 0.556900 -0.830600
vn 0.866000 0.000000 0.500000
vn 0.000000 0.556900 0.830600
vn 0.866000 0.000000 -0.500000
vn 0.500000 0.000000 -0.866000
vn -0.500000 0.000000 -0.866000
vn 0.830600 0.556900 0.000000
vn -0.500000 0.000000 0.866000
vn -0.830600 0.556900 0.000000
vn 0.500000 0.000000 0.866000
vn -0.965900 0.000000 -0.258800
vn 0.258800 0.000000 0.965900
vn -0.587300 0.556900 0.587300
vn 0.258800 0.000000 -0.965900
vn -0.965900 0.000000 0.258800
vn -0.587300 0.556900 -0.587300
vn 0.965900 0.000000 0.258800
vn -0.258800 0.000000 -0.965900
vn 0.587300 0.556900 -0.587300
vn -0.258800 0.000000 0.965900
vn 0.965900 0.000000 -0.258800
vn 0.587300 0.556900 0.587300
usemtl None
s off
f 2//1 1//1 5//1 6//1
f 3//2 2//2 6//2 7//2
f 4//3 3//3 7//3 8//3
f 1//4 4//4 8//4 5//4
f 10//1 9//1 13//1 14//1
f 11//5 10//5 14//5 15//5
f 12//3 11//3 15//3 16//3
f 9//6 12//6 16//6 13//6
f 18//1 17//1 21//1 22//1
f 19//4 18//4 22//4 23//4
f 20//3 19//3 23//3 24//3
f 17//2 20//2 24//2 21//2
f 26//1 25//1 29//1 30//1
f 27//6 26//6 30//6 31//6
f 28//3 27//3 31//3 32//3
f 25//5 28//5 32//5 29//5
f 34//7 36//7 35//7 33//7
f 36//8 40//8 39//8 35//8
f 40//9 38//9 37//9 39//9
f 38//10 34//10 33//10 37//10
f 38//3 40//3 36//3 34//3
f 53//11 54//11 69//11 70//11
f 35//12 46//12 45//12 33//12
f 41//13 47//13 46//13 35//13
f 42//14 48//14 47//14 41//14
f 33//15 45//15 48//15 42//15
f 46//8 47//8 63//8 61//8
f 39//16 50//16 49//16 35//16
f 43//17 51//17 50//17 39//17
f 41//18 52//18 51//18 43//18
f 35//19 49//19 52//19 41//19
f 49//20 50//20 65//20 66//20
f 33//21 54//21 53//21 37//21
f 42//22 55//22 54//22 33//22
f 44//23 56//23 55//23 42//23
f 37//24 53//24 56//24 44//24
f 45//25 46//25 61//25 62//25
f 37//26 58//26 57//26 39//26
f 44//27 59//27 58//27 37//27
f 43//28 60//28 59//28 44//28
f 39//29 57//29 60//29 43//29
f 62//7 61//7 63//7 64//7
f 66//8 65//8 67//8 68//8
f 70//10 69//10 71//10 72//10
f 74//9 73//9 75//9 76//9
f 50//9 51//9 67//9 65//9
f 57//30 58//30 73//30 74//30
f 47//31 48//31 64//31 63//31
f 54//7 55//7 71//7 69//7
f 51//32 52//32 68//32 67//32
f 58//10 59//10 75//10 73//10
f 48//10 45//10 62//10 64//10
f 55//33 56//33 72//33 71//33
f 52//7 49//7 66//7 68//7
f 59//34 60//34 76//34 75//34
f 56//9 53//9 70//9 72//9
f 60//8 57//8 74//8 76//8
f 85//8 87//8 88//8 86//8
f 78//35 85//35 86//35 77//35
f 79//36 80//36 82//36 81//36
f 86//37 88//37 77//37
f 83//38 84//38 80//38 79//38
f 81//10 82//10 84//10 83//10
f 82//39 80//39 84//39
f 87//40 78//40 77//40 88//40
f 79//1 81//1 83//1
f 78//1 87//1 85//1
f 97//9 99//9 100//9 98//9
f 90//41 97//41 98//41 89//41
f 91//42 92//42 94//42 93//42
f 98//43 100//43 89//43
f 95//44 96//44 92//44 91//44
f 93//7 94//7 96//7 95//7
f 94//45 92//45 96//45
f 99//46 90//46 89//46 100//46
f 91//1 93//1 95//1
f 90//1 99//1 97//1
f 101//47 102//47 104//47 103//47
f 105//48 106//48 102//48 101//48
f 103//6 104//6 106//6 105//6
f 104//49 102//49 106//49
f 101//1 103//1 105//1
f 107//50 108//50 110//50 109//50
f 111//51 112//51 108//51 107//51
f 109//4 110//4 112//4 111//4
f 110//52 108//52 112//52
f 107//1 109//1 111//1
f 113//53 114//53 116//53 115//53
f 117//54 118//54 114//54 113//54
f 115//5 116//5 118//5 117//5
f 116//55 114//55 118//55
f 113//1 115//1 117//1
f 119//56 120//56 122//56 121//56
f 123//57 124//57 120//57 119//57
f 121//2 122//2 124//2 123//2
f 122//58 120//58 124//58
f 119//1 121//1 123//1
f 44//9 127//9 128//9 43//9
f 42//10 125//10 127//10 44//10
f 43//8 128//8 126//8 41//8
f 126//12 134//12 133//12 125//12
f 129//13 135//13 134//13 126//13
f 130//14 136//14 135//14 129//14
f 125//15 133//15 136//15 130//15
f 128//16 138//16 137//16 126//16
f 131//17 139//17 138//17 128//17
f 129//18 140//18 139//18 131//18
f 126//19 137//19 140//19 129//19
f 125//21 142//21 141//21 127//21
f 130//22 143//22 142//22 125//22
f 132//23 144//23 143//23 130//23
f 127//24 141//24 144//24 132//24
f 127//26 146//26 145//26 128//26
f 132//27 147//27 146//27 127//27
f 131//28 148//28 147//28 132//28
f 128//29 145//29 148//29 131//29
f 41//7 126//7 125//7 42//7
f 138//8 139//8 140//8 137//8
f 134//7 135//7 136//7 133//7
f 146//9 147//9 148//9 145//9
f 142//10 143//10 144//10 141//10
