# Blender v2.75 (sub 0) OBJ File: 'geom.blend'
# www.blender.org
mtllib wall.mtl
o wall_Cube.004
v 4.484994 0.000000 0.500000
v 4.484994 1.000000 0.500000
v 4.484994 0.000000 -0.500000
v 4.484994 1.000000 -0.500000
v 5.484994 0.000000 0.500000
v 5.484994 1.000000 0.500000
v 5.484994 0.000000 -0.500000
v 5.484994 1.000000 -0.500000
vt 0.000000 0.000000
vt 1.000000 0.000000
vt 1.000000 1.000000
vt 0.000000 1.000000
vt 0.500000 0.500000
vn -1.000000 0.000000 0.000000
vn 0.000000 0.000000 -1.000000
vn 1.000000 0.000000 0.000000
vn 0.000000 0.000000 1.000000
vn 0.000000 1.000000 0.000000
usemtl None
s off
f 2/1/1 4/2/1 3/3/1 1/4/1
f 4/1/2 8/2/2 7/3/2 3/4/2
f 8/1/3 6/2/3 5/3/3 7/4/3
f 6/1/4 2/2/4 1/3/4 5/4/4
f 6/5/5 8/5/5 4/5/5 2/5/5
